<svg width="1359" height="739" viewBox="0 0 1359 739" fill="none" xmlns="http://www.w3.org/2000/svg">
  <path
    d="M683.861 739C1052.36 739 1351.1 719.223 1351.1 694.827C1351.1 670.431 1052.36 650.655 683.861 650.655C315.357 650.655 16.625 670.431 16.625 694.827C16.625 719.223 315.357 739 683.861 739Z"
    fill="#F2F2F2" />
  <path
    d="M658.287 211.252C549.577 211.252 471.523 280.999 471.523 443.74C471.523 628.181 549.577 677.003 658.287 677.003C766.998 677.003 849.701 623.531 849.701 443.74C849.701 251.55 766.998 211.252 658.287 211.252ZM659.002 615.781C583.706 615.781 544.369 571.607 544.369 443.859C544.369 331.141 585.317 271.699 660.612 271.699C735.908 271.699 776.856 310.744 776.856 443.859C776.855 568.387 734.298 615.781 659.002 615.781Z"
    fill="#82B9C9" />
  <path
    d="M406.427 548.36H361.48V416C361.48 408.97 358.687 402.228 353.716 397.257C348.745 392.286 342.003 389.493 334.973 389.493H324.441C320.96 389.493 317.513 390.179 314.297 391.511C311.081 392.843 308.159 394.796 305.698 397.257C303.236 399.718 301.284 402.641 299.951 405.857C298.619 409.073 297.934 412.519 297.934 416V548.36H171.153C168.544 548.36 165.981 547.686 163.71 546.403C161.439 545.12 159.538 543.272 158.192 541.038C156.846 538.804 156.1 536.26 156.026 533.653C155.953 531.046 156.554 528.464 157.773 526.158L291.957 272.189C293.63 269.023 294.644 265.55 294.937 261.981C295.231 258.412 294.799 254.82 293.666 251.423C292.534 248.026 290.725 244.893 288.348 242.214C285.971 239.536 283.077 237.366 279.838 235.837L271.917 232.096C265.767 229.192 258.735 228.763 252.277 230.898C245.819 233.034 240.429 237.57 237.222 243.569L73.5671 549.719C70.7803 554.932 69.3223 560.752 69.3223 566.664V566.664C69.3223 571.384 70.252 576.058 72.0583 580.418C73.8646 584.779 76.5122 588.742 79.8498 592.079C83.1874 595.417 87.1498 598.065 91.5106 599.871C95.8715 601.677 100.545 602.607 105.265 602.607H297.934V686.303C297.934 690.475 298.756 694.607 300.352 698.462C301.949 702.317 304.289 705.819 307.24 708.77C310.19 711.72 313.693 714.061 317.548 715.657C321.403 717.254 325.534 718.076 329.707 718.076H329.707C333.879 718.076 338.011 717.254 341.866 715.657C345.721 714.061 349.223 711.72 352.174 708.77C355.124 705.819 357.465 702.317 359.061 698.462C360.658 694.607 361.48 690.475 361.48 686.303V602.607H406.427C413.621 602.607 420.52 599.749 425.606 594.663C430.693 589.576 433.551 582.677 433.551 575.483V575.483C433.551 568.29 430.693 561.391 425.606 556.304C420.52 551.218 413.621 548.36 406.427 548.36V548.36Z"
    fill="#E2B96C" />
  <path
    d="M1238.73 548.36H1193.78V416C1193.78 408.97 1190.99 402.228 1186.02 397.257C1181.05 392.286 1174.3 389.493 1167.27 389.493H1156.74C1153.26 389.493 1149.81 390.179 1146.6 391.511C1143.38 392.843 1140.46 394.796 1138 397.257C1135.54 399.718 1133.58 402.641 1132.25 405.857C1130.92 409.073 1130.23 412.519 1130.23 416V548.36H1003.45C1000.85 548.36 998.281 547.686 996.01 546.403C993.739 545.12 991.839 543.272 990.493 541.038C989.146 538.804 988.4 536.26 988.327 533.653C988.254 531.046 988.855 528.464 990.074 526.158L1124.26 272.189C1125.93 269.023 1126.94 265.55 1127.24 261.981C1127.53 258.412 1127.1 254.82 1125.97 251.423C1124.83 248.026 1123.03 244.893 1120.65 242.214C1118.27 239.536 1115.38 237.366 1112.14 235.837L1104.22 232.096C1098.07 229.192 1091.04 228.763 1084.58 230.898C1078.12 233.034 1072.73 237.57 1069.52 243.569L905.868 549.719C903.081 554.932 901.623 560.752 901.623 566.664V566.664C901.623 576.196 905.41 585.339 912.151 592.079C918.891 598.82 928.034 602.607 937.566 602.607H1130.23V686.303C1130.23 694.729 1133.58 702.811 1139.54 708.77C1145.5 714.728 1153.58 718.076 1162.01 718.076V718.076C1170.43 718.076 1178.52 714.728 1184.47 708.77C1190.43 702.811 1193.78 694.729 1193.78 686.303V602.607H1238.73C1245.92 602.607 1252.82 599.749 1257.91 594.663C1262.99 589.576 1265.85 582.677 1265.85 575.483V575.483C1265.85 568.29 1262.99 561.391 1257.91 556.304C1252.82 551.218 1245.92 548.36 1238.73 548.36Z"
    fill="#E2B96C" />
  <path
    d="M418.826 532.861H373.879V400.501C373.879 397.02 373.193 393.573 371.861 390.357C370.529 387.141 368.577 384.219 366.115 381.758C363.654 379.296 360.732 377.344 357.516 376.012C354.3 374.68 350.853 373.994 347.372 373.994H336.84C329.81 373.994 323.067 376.787 318.096 381.758C313.125 386.729 310.333 393.471 310.333 400.501V532.861H183.551C180.943 532.861 178.379 532.187 176.109 530.904C173.838 529.621 171.937 527.773 170.591 525.539C169.244 523.305 168.499 520.761 168.425 518.154C168.352 515.547 168.953 512.965 170.172 510.659L304.356 256.69C306.029 253.524 307.043 250.051 307.336 246.482C307.63 242.913 307.198 239.321 306.065 235.924C304.933 232.527 303.124 229.394 300.747 226.715C298.37 224.036 295.476 221.867 292.237 220.338L284.316 216.597C278.166 213.693 271.134 213.264 264.676 215.399C258.218 217.535 252.828 222.071 249.621 228.07L85.966 534.219C83.1792 539.433 81.7212 545.253 81.7212 551.164V551.164C81.7212 560.697 85.5081 569.84 92.2487 576.58C98.9894 583.321 108.132 587.108 117.664 587.108H310.333V670.803C310.333 674.976 311.155 679.108 312.751 682.963C314.348 686.817 316.688 690.32 319.639 693.271C322.589 696.221 326.092 698.561 329.947 700.158C333.802 701.755 337.933 702.577 342.106 702.577H342.106C350.533 702.577 358.614 699.229 364.573 693.271C370.531 687.312 373.879 679.23 373.879 670.803V587.108H418.826C422.388 587.108 425.915 586.406 429.206 585.043C432.497 583.68 435.487 581.682 438.005 579.164C440.524 576.645 442.522 573.655 443.885 570.364C445.248 567.073 445.95 563.546 445.95 559.984V559.984C445.95 556.422 445.248 552.895 443.885 549.605C442.522 546.314 440.524 543.324 438.005 540.805C435.487 538.286 432.497 536.288 429.206 534.925C425.915 533.562 422.388 532.861 418.826 532.861V532.861Z"
    stroke="#796070" stroke-miterlimit="10" />
  <path
    d="M1261.98 532.861H1217.03V400.501C1217.03 393.471 1214.24 386.729 1209.27 381.758C1204.29 376.787 1197.55 373.994 1190.52 373.994H1179.99C1176.51 373.994 1173.06 374.68 1169.85 376.012C1166.63 377.344 1163.71 379.296 1161.25 381.758C1158.78 384.219 1156.83 387.141 1155.5 390.357C1154.17 393.573 1153.48 397.02 1153.48 400.501V532.861H1026.7C1024.09 532.861 1021.53 532.187 1019.26 530.904C1016.99 529.621 1015.09 527.773 1013.74 525.539C1012.39 523.305 1011.65 520.761 1011.58 518.154C1011.5 515.547 1012.1 512.965 1013.32 510.659L1147.51 256.69C1149.18 253.524 1150.19 250.051 1150.49 246.482C1150.78 242.913 1150.35 239.321 1149.22 235.924C1148.08 232.527 1146.27 229.394 1143.9 226.715C1141.52 224.036 1138.63 221.867 1135.39 220.338L1127.47 216.597C1121.32 213.693 1114.28 213.264 1107.83 215.399C1101.37 217.535 1095.98 222.071 1092.77 228.07L929.116 534.219C926.329 539.433 924.871 545.253 924.871 551.164C924.871 560.697 928.658 569.84 935.399 576.58C942.139 583.321 951.282 587.108 960.814 587.108H1153.48V670.803C1153.48 679.23 1156.83 687.312 1162.79 693.271C1168.75 699.229 1176.83 702.577 1185.26 702.577V702.577C1193.68 702.577 1201.76 699.229 1207.72 693.271C1213.68 687.312 1217.03 679.23 1217.03 670.803V587.108H1261.98C1265.54 587.108 1269.06 586.406 1272.36 585.043C1275.65 583.68 1278.64 581.682 1281.16 579.164C1283.67 576.645 1285.67 573.655 1287.03 570.364C1288.4 567.073 1289.1 563.546 1289.1 559.984V559.984C1289.1 552.791 1286.24 545.892 1281.16 540.805C1276.07 535.718 1269.17 532.861 1261.98 532.861V532.861Z"
    stroke="#796070" stroke-miterlimit="10" />
  <path
    d="M683.086 197.303C574.375 197.303 496.322 267.049 496.322 429.791C496.322 614.231 574.375 663.054 683.086 663.054C791.797 663.054 874.5 609.582 874.5 429.791C874.5 237.601 791.797 197.303 683.086 197.303ZM683.8 601.832C608.505 601.832 569.168 557.658 569.168 429.91C569.168 317.192 610.115 257.75 685.411 257.75C760.706 257.75 801.654 296.795 801.654 429.91C801.654 554.437 759.096 601.832 683.8 601.832V601.832Z"
    stroke="#796070" stroke-miterlimit="10" />
  <path
    d="M595.947 39.404C604.96 39.404 612.266 32.0978 612.266 23.0852C612.266 14.0726 604.96 6.76636 595.947 6.76636C586.935 6.76636 579.628 14.0726 579.628 23.0852C579.628 32.0978 586.935 39.404 595.947 39.404Z"
    fill="#82B9C9" />
  <path
    d="M635.749 118.61C661.028 118.61 681.521 92.0583 681.521 59.305C681.521 26.5518 661.028 0 635.749 0C610.469 0 589.977 26.5518 589.977 59.305C589.977 92.0583 610.469 118.61 635.749 118.61Z"
    fill="#82B9C9" />
  <path opacity="0.1"
    d="M635.749 100.699C612.819 100.699 593.829 78.8535 590.496 50.3496C590.15 53.3222 589.976 56.3124 589.977 59.3051C589.977 92.0583 610.47 118.61 635.749 118.61C661.028 118.61 681.521 92.0584 681.521 59.3051C681.522 56.3124 681.349 53.3222 681.002 50.3496C677.67 78.8535 658.679 100.699 635.749 100.699Z"
    fill="black" />
  <path
    d="M728.89 232.982C727.907 237.022 723.668 240.257 718.974 242.517C709.106 247.269 696.933 248.687 685.126 249.163C682.114 249.346 679.092 249.29 676.089 248.996C670.269 248.433 664.81 245.924 660.593 241.873C660.292 241.677 660.046 241.408 659.877 241.09C659.708 240.773 659.623 240.418 659.628 240.059C659.634 239.7 659.73 239.348 659.909 239.036C660.087 238.724 660.342 238.463 660.648 238.276C666.934 231.371 677.424 227.137 687.991 224.088C696.003 221.777 709.976 215.789 718.715 216.597C727.18 217.38 730.131 227.882 728.89 232.982Z"
    fill="#796070" />
  <path opacity="0.1"
    d="M728.89 232.982C727.907 237.022 723.668 240.257 718.974 242.517C709.106 247.269 696.933 248.687 685.126 249.163C682.114 249.346 679.092 249.29 676.089 248.996C670.269 248.433 664.81 245.924 660.593 241.873C660.292 241.677 660.046 241.408 659.877 241.09C659.708 240.773 659.623 240.418 659.628 240.059C659.634 239.7 659.73 239.348 659.909 239.036C660.087 238.724 660.342 238.463 660.648 238.276C666.934 231.371 677.424 227.137 687.991 224.088C696.003 221.777 709.976 215.789 718.715 216.597C727.18 217.38 730.131 227.882 728.89 232.982Z"
    fill="black" />
  <path
    d="M603.414 202.792C600.401 208.696 599.856 215.555 601.898 221.86C603.974 228.119 607.861 233.62 613.066 237.668C625.834 247.903 643.408 249.311 659.772 249.169C674.113 249.045 688.434 248.063 702.659 246.23C707.425 245.808 712.109 244.72 716.574 242.999C721.915 240.688 726.609 236.45 728.51 230.95C730.411 225.45 729.062 218.715 724.546 215.044C720.578 211.819 715.106 211.376 710.002 211.069L680.799 209.314C683.684 206.394 687.526 204.742 691.039 202.62C695.701 199.804 698.798 195.075 702.187 190.812C707.409 184.571 713.091 178.729 719.186 173.335C720.136 178.787 723.585 183.264 727.644 187.026C731.704 190.788 736.383 193.817 740.602 197.399C750.82 206.074 758.179 217.848 768.926 225.86C776.319 223.917 783.23 220.467 789.226 215.725L785.049 208.159C784.701 207.38 784.159 206.704 783.475 206.195C782.292 205.468 780.768 205.842 779.395 205.637C775.726 205.086 774.123 200.85 772.684 197.431C768.731 188.043 761.163 180.759 754.7 172.887C749.929 167.075 745.697 160.842 742.056 154.263C739.885 150.34 737.897 146.255 734.95 142.875C732.004 139.495 727.875 136.838 723.391 136.828C719.429 136.82 715.775 138.831 712.368 140.855C701.993 147.017 692.011 153.818 682.479 161.218C677.49 165.091 672.533 169.183 666.681 171.558C664.217 172.557 661.621 173.241 659.257 174.457C655.117 176.588 651.974 180.193 648.592 183.393C636.528 194.806 620.011 202.201 603.414 202.792Z"
    fill="#796070" />
  <path
    d="M664.477 121.555C664.342 125.044 663.6 128.483 662.284 131.717C661.618 133.33 660.626 134.788 659.371 136.001C658.115 137.214 656.624 138.155 654.989 138.766C652.667 139.388 650.233 139.467 647.876 138.997C645.821 138.782 643.84 138.107 642.081 137.023C639.343 135.14 637.977 131.781 637.48 128.493C636.982 125.209 637.205 121.854 636.887 118.546C636.577 115.875 636.069 113.23 635.367 110.634C635.152 109.77 634.933 108.91 634.718 108.051C634.507 107.191 634.3 106.331 634.109 105.471C633.934 104.663 633.77 103.852 633.631 103.036C633.516 102.347 633.412 101.654 633.337 100.958C633.267 98.8929 632.923 96.8464 632.314 94.8722C631.742 93.5918 631.026 92.3806 630.18 91.2621C629.818 90.7447 629.468 90.2273 629.145 89.6899C628.213 88.2935 627.78 86.6231 627.916 84.9495C627.954 84.6908 628.017 84.4363 628.103 84.1893C628.135 84.0938 628.17 83.9983 628.21 83.9067C628.568 83.8095 628.897 83.6264 629.168 83.3732C629.44 83.12 629.645 82.8044 629.766 82.4539C629.903 81.7009 629.839 80.9251 629.579 80.2051C629.282 79.199 628.875 78.2286 628.365 77.3115C628.031 76.7065 626.897 75.6159 626.889 74.9233C626.873 73.5302 629.595 72.4078 630.698 71.8585C634.063 70.1733 637.816 69.4124 641.572 69.6535C643.98 69.8167 646.591 70.557 647.92 72.575C649.114 74.3939 648.955 76.7502 649.464 78.8637C649.518 79.1709 649.648 79.4597 649.842 79.7035C650.102 79.9402 650.429 80.0904 650.778 80.1334C651.367 80.2507 651.972 80.2749 652.569 80.205H652.573C652.731 80.1925 652.888 80.1699 653.042 80.1374C653.972 79.9658 654.851 79.5862 655.614 79.0269C656.107 78.8955 656.605 78.7881 657.106 78.7045C657.126 78.7024 657.146 78.6984 657.166 78.6925C659.16 84.9852 659.419 91.7317 661.051 98.1398C661.859 101.328 663.017 104.476 663.18 107.756C663.192 107.899 663.196 108.047 663.2 108.194C663.224 109.249 663.14 110.311 663.184 111.362C663.199 111.835 663.252 112.306 663.343 112.771C663.522 113.518 663.744 114.255 664.008 114.976L664.02 115.012C664.095 115.243 664.167 115.478 664.227 115.712C664.27 115.884 664.31 116.051 664.342 116.222L664.346 116.234C664.641 117.993 664.685 119.784 664.477 121.555V121.555Z"
    fill="#FBBEBE" />
  <path
    d="M636.545 80.4001C649.514 80.4001 660.028 69.8863 660.028 56.9169C660.028 43.9475 649.514 33.4337 636.545 33.4337C623.575 33.4337 613.062 43.9475 613.062 56.9169C613.062 69.8863 623.575 80.4001 636.545 80.4001Z"
    fill="#FBBEBE" />
  <path
    d="M785.634 184.865C784.954 178.458 782.676 172.324 779.011 167.025C779.62 170.647 780.23 174.268 780.842 177.887C780.082 178.107 779.274 178.101 778.517 177.868C777.761 177.635 777.089 177.187 776.583 176.578C775.594 175.343 774.838 173.939 774.35 172.434C771.682 165.811 768.194 159.549 763.966 153.795C749.017 152.549 734.238 146.352 721.092 139.128C707.941 131.908 695.634 123.251 682.659 115.724C680.41 114.365 678.066 113.168 675.646 112.142C671.586 110.514 667.029 109.671 663.18 107.756C662.921 107.629 662.663 107.493 662.408 107.354C661.538 106.881 660.715 106.328 659.948 105.702C659.534 105.366 659.14 105.004 658.77 104.62C656.85 102.386 655.327 99.8384 654.269 97.0891C652.203 92.5199 651.466 87.0072 649.405 82.438C650.352 81.5524 651.417 80.8011 652.569 80.2051H652.573C652.74 80.1175 652.907 80.0339 653.078 79.9543C653.894 79.5701 654.743 79.2598 655.614 79.0269C656.107 78.8956 656.605 78.7881 657.106 78.7045C657.127 78.7025 657.147 78.6985 657.166 78.6926C659.492 78.3137 661.874 78.5021 664.112 79.2419C667.383 80.3484 670.141 82.5574 672.892 84.647C677.36 87.7948 681.646 91.1941 685.728 94.8283C687.997 97.0015 690.066 99.3896 692.506 101.364C694.534 102.929 696.671 104.345 698.902 105.603C712.104 113.468 725.308 121.331 738.513 129.193C742.983 131.856 747.456 134.519 751.827 137.337C758.466 141.62 764.866 146.261 771.262 150.897C775.031 153.628 778.799 156.36 782.566 159.093C783.801 159.881 784.886 160.884 785.77 162.054C786.55 163.382 787.035 164.864 787.191 166.396C788.136 172.589 787.603 178.918 785.634 184.865V184.865Z"
    fill="#FBBEBE" />
  <path
    d="M670.301 139.216C668.716 146.32 661.536 150.615 657.783 156.856C653.118 164.601 655.021 173.605 656.772 182.476C653.572 185.235 650.371 187.993 647.168 190.751C645.401 192.268 643.633 193.792 641.731 195.133C638.957 196.992 636.058 198.657 633.054 200.117C630.22 201.573 627.386 203.032 624.552 204.491C621.918 205.972 619.127 207.155 616.23 208.017C610.646 209.45 604.715 208.447 599.191 206.787C598.539 206.617 597.913 206.361 597.328 206.027C596.983 205.822 596.683 205.55 596.445 205.227C595.9 204.251 595.702 203.119 595.883 202.015C596.445 192.717 598.717 183.615 600.982 174.58C602.192 169.159 603.82 163.84 605.85 158.671C607.841 154.241 610.129 149.951 612.7 145.831C615.536 140.646 618.897 135.766 622.73 131.267C624.595 129.536 626.166 127.511 627.378 125.273C628.791 122.049 628.246 118.351 628.533 114.841C628.752 112.203 629.452 109.628 630.598 107.243V107.239C631.212 105.954 631.95 104.732 632.803 103.593C633.189 104.492 633.576 105.39 633.962 106.287C634.216 106.876 634.468 107.464 634.718 108.051C635.044 108.807 635.368 109.56 635.689 110.311C636.616 112.469 637.542 114.625 638.467 116.779C639.467 119.493 640.891 122.031 642.686 124.298C643.507 125.459 644.615 126.387 645.901 126.992C647.188 127.596 648.609 127.857 650.027 127.749C651.444 127.64 652.81 127.165 653.989 126.372C655.168 125.578 656.122 124.492 656.756 123.219C658.094 120.844 659.063 118.279 659.63 115.613C660.416 112.366 660.524 108.993 659.948 105.702C658.989 99.3658 656.294 92.8941 654.336 87.0073C653.539 85.0445 653.078 82.9617 652.971 80.8459C652.975 80.6082 652.999 80.3712 653.043 80.1375C653.054 80.0778 653.066 80.0141 653.078 79.9544C653.894 79.5702 654.743 79.2598 655.614 79.027C656.107 78.8956 656.605 78.7882 657.106 78.7046C658.83 88.0342 660.556 97.3638 662.285 106.693C662.324 106.912 662.368 107.131 662.408 107.354C662.655 108.691 662.905 110.029 663.184 111.362C663.435 112.572 663.705 113.778 664.008 114.976L664.02 115.012C664.123 115.418 664.231 115.82 664.342 116.222L664.346 116.234C664.653 117.332 664.995 118.423 665.381 119.498C667.721 125.973 671.801 132.493 670.301 139.216Z"
    fill="#E2B96C" />
  <path
    d="M765.604 239.059C765.53 240.427 765.795 241.793 766.376 243.035C767.845 245.721 771.372 246.331 774.423 246.583C792.248 248.048 810.182 247.501 827.885 244.954C828.846 244.888 829.777 244.599 830.606 244.109C833.123 242.344 831.572 238.044 828.824 236.667C826.075 235.29 822.814 235.622 819.798 235.026C816.802 234.272 813.949 233.034 811.351 231.362C805.235 227.849 799.209 224.185 793.272 220.373C789.737 218.103 785.565 215.68 781.584 217.026C770.801 220.674 765.533 227.426 765.604 239.059Z"
    fill="#796070" />
  <path
    d="M634.2 104.974V104.978C634.173 105.145 634.145 105.308 634.109 105.471C634.065 105.742 634.013 106.017 633.962 106.287C633.468 108.815 632.863 111.33 632.167 113.83C630.256 120.735 627.697 127.53 625.158 134.224C618.344 152.175 611.528 170.127 604.711 188.08C602.992 192.602 601.276 197.127 599.322 201.557C598.67 203.034 597.997 204.523 597.328 206.027C594.932 211.412 592.632 216.973 591.867 222.704C591.155 226.476 591.073 230.34 591.625 234.139C592.389 237.897 594.669 241.566 598.24 242.955C599.983 243.636 602.478 244.548 602.001 246.359C601.742 247.354 600.612 247.839 599.597 248.006C598.257 248.22 596.886 248.136 595.582 247.76C594.277 247.385 593.072 246.727 592.05 245.833C590.144 244.142 588.679 241.511 586.144 241.228C584.389 241.037 582.773 242.088 581.165 242.824C574.605 245.821 566.963 243.724 560.074 241.594C560.615 238.804 563.417 236.965 566.199 236.408C568.981 235.847 571.859 236.245 574.697 236.169C575.606 236.218 576.507 235.986 577.28 235.505C577.972 234.869 578.458 234.04 578.673 233.124C580.501 227.708 581.861 222.144 582.737 216.495C583.652 210.592 584.034 204.598 585.34 198.767C586.355 194.218 587.923 189.812 589.268 185.346C591.87 176.151 594.006 166.831 595.668 157.421C596.509 153.511 597.111 149.554 597.471 145.572C597.698 142.268 597.591 138.949 597.909 135.657C598.444 131.375 599.337 127.145 600.58 123.012C601.798 118.503 603.014 113.996 604.23 109.491C606.033 102.825 607.967 95.899 612.536 90.7167C614.123 88.8924 616.068 87.4133 618.25 86.3713C620.432 85.3293 622.805 84.7464 625.221 84.6589C626.127 84.6578 627.031 84.7552 627.916 84.9494C628.063 84.9852 628.21 85.0211 628.358 85.0608C629.322 85.313 630.247 85.696 631.108 86.1992C632.517 85.3037 633.233 85.6181 634.169 86.9992C634.989 88.4609 635.375 90.1259 635.283 91.7994C635.362 96.216 634.999 100.629 634.2 104.974Z"
    fill="#FBBEBE" />
  <path
    d="M635.749 110.252L635.689 110.311L635.367 110.634L632.167 113.83L630.598 107.243L625.221 84.6589C626.127 84.6578 627.031 84.7552 627.916 84.9494C627.954 84.6907 628.017 84.4362 628.103 84.1892L628.358 85.0609L630.18 91.262L633.631 103.035L634.2 104.974V104.978L635.749 110.252Z"
    fill="#E2B96C" />
  <path
    d="M656.056 38.2038C656.053 40.295 655.638 42.3651 654.835 44.2959C654.032 46.2266 652.856 47.9801 651.375 49.4562C650.839 49.9935 650.264 50.4908 649.655 50.9442C646.908 53.0148 643.562 54.1354 640.123 54.1371H621.028C616.808 54.1305 612.764 52.4498 609.783 49.4639C606.801 46.478 605.127 42.431 605.127 38.2116C605.127 33.9921 606.801 29.9452 609.783 26.9593C612.764 23.9734 616.808 22.2926 621.028 22.2861H640.123C644.342 22.2971 648.386 23.9772 651.371 26.9595C654.357 29.9419 656.041 33.9842 656.056 38.2038V38.2038Z"
    fill="#82B9C9" />
  <path
    d="M673.958 39.404C682.971 39.404 690.277 32.0978 690.277 23.0852C690.277 14.0726 682.971 6.76636 673.958 6.76636C664.946 6.76636 657.64 14.0726 657.64 23.0852C657.64 32.0978 664.946 39.404 673.958 39.404Z"
    fill="#82B9C9" />
  <path opacity="0.1"
    d="M673.56 6.76636C673.36 6.76636 673.162 6.7743 672.963 6.78145C677.185 6.93492 681.182 8.71982 684.114 11.7606C687.047 14.8014 688.685 18.861 688.685 23.0852C688.685 27.3095 687.047 31.369 684.114 34.4098C681.182 37.4506 677.185 39.2355 672.963 39.3889C673.162 39.3961 673.36 39.404 673.56 39.404C677.888 39.404 682.039 37.6847 685.099 34.6243C688.16 31.564 689.879 27.4132 689.879 23.0852C689.879 18.7572 688.16 14.6064 685.099 11.546C682.039 8.48566 677.888 6.76636 673.56 6.76636V6.76636Z"
    fill="black" />
  <path opacity="0.1"
    d="M595.947 6.76636C596.147 6.76636 596.345 6.7743 596.544 6.78145C592.323 6.93492 588.325 8.71982 585.393 11.7606C582.461 14.8014 580.822 18.861 580.822 23.0852C580.822 27.3095 582.461 31.369 585.393 34.4098C588.325 37.4506 592.323 39.2355 596.544 39.3889C596.345 39.3961 596.147 39.404 595.947 39.404C591.621 39.4002 587.474 37.6792 584.417 34.6193C581.36 31.5593 579.643 27.4107 579.643 23.0852C579.643 18.7597 581.36 14.6111 584.417 11.5511C587.474 8.49115 591.621 6.77017 595.947 6.76636Z"
    fill="black" />
  <path opacity="0.1"
    d="M649.654 50.9442C646.907 53.0148 643.562 54.1354 640.122 54.137H621.027C617.587 54.1354 614.242 53.0148 611.495 50.9442H649.654Z"
    fill="black" />
  <path d="M772.963 169.189C772.963 169.189 777.077 181.044 780.842 177.887L777.841 162.392L772.963 169.189Z"
    fill="#FBBEBE" />
  <path
    d="M1273.58 530.693C1277.42 532.086 1281.52 532.57 1285.57 532.107C1289.62 531.643 1293.51 530.246 1296.93 528.024C1300.34 525.802 1303.2 522.816 1305.27 519.302C1307.34 515.788 1308.56 511.842 1308.84 507.775C1309.12 503.707 1308.46 499.63 1306.9 495.864C1305.33 492.098 1302.92 488.746 1299.84 486.073C1296.76 483.4 1293.1 481.478 1289.16 480.46C1285.21 479.441 1281.08 479.354 1277.09 480.204L1277.75 493.753L1271.34 482.141C1265.05 485.097 1260.19 490.431 1257.82 496.969C1256.99 499.259 1256.48 501.657 1256.31 504.09C1255.91 509.8 1257.37 515.485 1260.49 520.286C1263.61 525.086 1268.2 528.74 1273.58 530.693V530.693Z"
    fill="#B1ABB3" />
  <path
    d="M1305.3 687.85C1303.04 676.326 1312.85 666.11 1322.53 659.469C1332.22 652.829 1343.54 646.304 1346.84 635.035C1351.59 618.84 1337.44 604.007 1326.43 591.217C1318.26 581.724 1311.25 571.297 1305.53 560.154C1303.24 555.685 1301.13 551.014 1300.53 546.029C1299.66 538.85 1301.97 531.707 1304.29 524.859C1312.03 502.047 1320.31 479.426 1329.12 456.996"
    stroke="#796070" stroke-miterlimit="10" />
  <path
    d="M1274.67 527.204C1278.5 528.597 1282.6 529.081 1286.65 528.618C1290.7 528.155 1294.59 526.757 1298.01 524.535C1301.43 522.313 1304.28 519.327 1306.35 515.813C1308.42 512.3 1309.64 508.353 1309.93 504.286C1310.21 500.219 1309.54 496.141 1307.98 492.375C1306.42 488.609 1304 485.258 1300.92 482.585C1297.84 479.911 1294.19 477.99 1290.24 476.971C1286.29 475.953 1282.16 475.865 1278.17 476.715L1278.83 490.265L1272.42 478.653C1266.13 481.609 1261.27 486.942 1258.91 493.481C1258.07 495.771 1257.56 498.169 1257.39 500.602C1256.99 506.311 1258.46 511.997 1261.57 516.797C1264.69 521.598 1269.29 525.251 1274.67 527.204V527.204Z"
    stroke="#796070" stroke-miterlimit="10" />
  <path
    d="M1302.09 452.317C1303.59 448.168 1306.11 444.464 1309.43 441.547C1312.74 438.629 1316.73 436.592 1321.03 435.623L1323.2 448.505L1327.22 434.976C1332.8 435.058 1338.21 436.912 1342.67 440.27C1347.12 443.627 1350.4 448.314 1352.02 453.654C1353.64 458.994 1353.52 464.71 1351.68 469.978C1349.84 475.246 1346.37 479.793 1341.78 482.962C1337.19 486.131 1331.7 487.758 1326.13 487.609C1320.55 487.46 1315.16 485.541 1310.74 482.131C1306.33 478.721 1303.11 473.995 1301.55 468.636C1300 463.277 1300.18 457.563 1302.09 452.317H1302.09Z"
    fill="#B1ABB3" />
  <path
    d="M1303.53 447.666C1305.04 443.517 1307.56 439.813 1310.87 436.895C1314.18 433.978 1318.17 431.941 1322.48 430.972L1324.65 443.853L1328.67 430.324C1334.25 430.407 1339.65 432.261 1344.11 435.618C1348.57 438.975 1351.84 443.662 1353.46 449.002C1355.08 454.342 1354.97 460.059 1353.13 465.327C1351.28 470.595 1347.82 475.142 1343.22 478.311C1338.63 481.48 1333.15 483.107 1327.57 482.958C1321.99 482.808 1316.61 480.89 1312.19 477.48C1307.77 474.07 1304.55 469.344 1303 463.985C1301.44 458.626 1301.63 452.911 1303.53 447.666H1303.53Z"
    stroke="#796070" stroke-miterlimit="10" />
  <path
    d="M1321.81 591.478C1327.89 593.682 1334.56 593.573 1340.56 591.172C1346.57 588.771 1351.47 584.245 1354.35 578.457C1357.23 572.67 1357.88 566.025 1356.18 559.79C1354.47 553.555 1350.53 548.165 1345.11 544.647L1342.02 555.044L1339.83 542.011C1339.81 542 1339.79 541.992 1339.76 541.985C1336.51 540.804 1333.06 540.275 1329.61 540.428C1326.15 540.581 1322.76 541.413 1319.63 542.877C1316.5 544.341 1313.68 546.408 1311.35 548.96C1309.01 551.511 1307.21 554.498 1306.03 557.749C1304.85 561 1304.32 564.452 1304.47 567.906C1304.63 571.361 1305.46 574.752 1306.93 577.884C1308.4 581.016 1310.46 583.829 1313.02 586.161C1315.57 588.494 1318.56 590.3 1321.81 591.478H1321.81Z"
    fill="#B1ABB3" />
  <path
    d="M1323.06 586.766C1329.14 588.971 1335.82 588.862 1341.82 586.461C1347.82 584.059 1352.73 579.534 1355.61 573.746C1358.49 567.959 1359.13 561.314 1357.43 555.078C1355.72 548.843 1351.78 543.453 1346.36 539.936L1343.27 550.333L1341.08 537.299C1341.06 537.289 1341.04 537.28 1341.02 537.274C1337.77 536.092 1334.32 535.563 1330.86 535.716C1327.41 535.869 1324.01 536.701 1320.88 538.165C1317.75 539.629 1314.93 541.696 1312.6 544.248C1310.27 546.8 1308.46 549.787 1307.28 553.038C1306.1 556.289 1305.57 559.74 1305.73 563.195C1305.88 566.65 1306.72 570.04 1308.18 573.172C1309.65 576.305 1311.72 579.117 1314.27 581.45C1316.82 583.782 1319.81 585.589 1323.06 586.766H1323.06Z"
    stroke="#796070" stroke-miterlimit="10" />
  <path
    d="M1294.4 635.196C1295.45 641.142 1298.51 646.547 1303.06 650.506C1307.62 654.464 1313.4 656.736 1319.43 656.939C1325.47 657.142 1331.38 655.265 1336.2 651.622C1341.01 647.978 1344.42 642.791 1345.87 636.929C1347.31 631.068 1346.69 624.889 1344.12 619.428C1341.55 613.967 1337.18 609.557 1331.74 606.937C1326.3 604.318 1320.13 603.647 1314.25 605.039C1308.38 606.431 1303.16 609.8 1299.48 614.582L1311.21 632.235L1295.18 622.865C1293.94 626.854 1293.67 631.083 1294.4 635.196V635.196Z"
    fill="#B1ABB3" />
  <path
    d="M1295.49 631.708C1296.53 637.653 1299.59 643.058 1304.15 647.017C1308.7 650.976 1314.48 653.247 1320.52 653.45C1326.55 653.654 1332.47 651.776 1337.28 648.133C1342.1 644.49 1345.51 639.303 1346.95 633.441C1348.39 627.579 1347.78 621.4 1345.2 615.939C1342.63 610.479 1338.26 606.069 1332.82 603.449C1327.38 600.829 1321.21 600.159 1315.34 601.551C1309.46 602.942 1304.25 606.312 1300.56 611.093L1312.29 628.747L1296.26 619.377C1295.02 623.366 1294.76 627.595 1295.49 631.708V631.708Z"
    stroke="#796070" stroke-miterlimit="10" />
  <path
    d="M11.3936 594.823C13.9111 595.738 16.6068 596.056 19.2682 595.752C21.9296 595.447 24.4839 594.529 26.7299 593.069C28.9758 591.609 30.852 589.647 32.2105 587.339C33.569 585.03 34.3727 582.437 34.5582 579.765C34.7438 577.093 34.3061 574.414 33.2798 571.94C32.2534 569.465 30.6663 567.263 28.6437 565.507C26.6211 563.751 24.2182 562.488 21.6244 561.819C19.0306 561.149 16.3168 561.092 13.697 561.65L14.1299 570.553L9.91796 562.923C5.78416 564.866 2.59063 568.37 1.03916 572.666C0.488166 574.17 0.153202 575.746 0.0442623 577.345C-0.221598 581.096 0.74252 584.831 2.79051 587.985C4.83851 591.139 7.85876 593.539 11.3936 594.823V594.823Z"
    fill="#B1ABB3" />
  <path
    d="M32.2345 698.078C30.7477 690.506 37.1904 683.794 43.5543 679.431C49.9182 675.068 57.3541 670.782 59.5255 663.378C62.6461 652.737 53.3506 642.992 46.1157 634.588C40.7481 628.351 36.1385 621.501 32.3836 614.179C30.7511 611.303 29.6392 608.162 29.099 604.899C28.5286 600.182 30.0439 595.489 31.5705 590.99C36.6562 576.002 42.0937 561.14 47.883 546.403"
    stroke="#796070" stroke-miterlimit="10" />
  <path
    d="M12.106 592.531C14.6235 593.446 17.3192 593.764 19.9806 593.459C22.642 593.155 25.1963 592.237 27.4423 590.777C29.6882 589.317 31.5644 587.355 32.9228 585.047C34.2813 582.738 35.085 580.145 35.2706 577.473C35.4562 574.801 35.0185 572.122 33.9921 569.647C32.9657 567.173 31.3787 564.971 29.3561 563.215C27.3335 561.458 24.9306 560.196 22.3368 559.527C19.743 558.857 17.0293 558.8 14.4094 559.358L14.8423 568.261L10.6304 560.631C6.49657 562.574 3.30303 566.078 1.75156 570.374C1.20057 571.878 0.865616 573.454 0.75667 575.052C0.490792 578.803 1.4549 582.539 3.5029 585.693C5.5509 588.847 8.57116 591.247 12.106 592.531V592.531Z"
    stroke="#796070" stroke-miterlimit="10" />
  <path
    d="M30.1206 543.328C31.1086 540.602 32.7668 538.169 34.9424 536.252C37.1181 534.335 39.7411 532.997 42.5699 532.36L43.994 540.824L46.6344 531.935C50.3003 531.989 53.8541 533.207 56.7826 535.413C59.7112 537.619 61.863 540.698 62.9274 544.207C63.9918 547.715 63.9137 551.471 62.7044 554.932C61.495 558.393 59.217 561.38 56.1992 563.463C53.1815 565.545 49.5801 566.614 45.9151 566.516C42.2501 566.418 38.7111 565.157 35.809 562.917C32.907 560.676 30.7921 557.571 29.7696 554.05C28.7472 550.53 28.8701 546.775 30.1206 543.328V543.328Z"
    fill="#B1ABB3" />
  <path
    d="M31.0699 540.272C32.0579 537.546 33.7161 535.113 35.8917 533.196C38.0673 531.279 40.6904 529.941 43.5191 529.304L44.9433 537.768L47.5836 528.879C51.2495 528.933 54.8033 530.151 57.7319 532.357C60.6604 534.563 62.8123 537.642 63.8766 541.15C64.941 544.659 64.8629 548.415 63.6536 551.876C62.4442 555.337 60.1662 558.324 57.1485 560.407C54.1307 562.489 50.5293 563.558 46.8643 563.46C43.1993 563.362 39.6603 562.101 36.7583 559.861C33.8562 557.62 31.7413 554.515 30.7188 550.994C29.6964 547.473 29.8193 543.719 31.0699 540.272V540.272Z"
    stroke="#796070" stroke-miterlimit="10" />
  <path
    d="M43.0794 634.759C47.072 636.208 51.4578 636.136 55.4011 634.558C59.3443 632.981 62.5691 630.007 64.4609 626.205C66.3526 622.402 66.7791 618.037 65.6589 613.94C64.5387 609.843 61.9502 606.302 58.3868 603.991L56.358 610.822L54.9194 602.259C54.9052 602.252 54.8905 602.246 54.8754 602.242C52.7398 601.465 50.4721 601.117 48.202 601.217C45.9318 601.318 43.7036 601.864 41.6448 602.826C39.5859 603.788 37.7368 605.146 36.2031 606.823C34.6694 608.499 33.4811 610.462 32.7062 612.598C31.9312 614.734 31.5849 617.002 31.6869 619.272C31.7889 621.542 32.3372 623.77 33.3005 625.828C34.2639 627.886 35.6234 629.734 37.3013 631.267C38.9792 632.799 40.9427 633.986 43.0794 634.759V634.759Z"
    fill="#B1ABB3" />
  <path
    d="M43.9023 631.664C47.8948 633.112 52.2807 633.041 56.2239 631.463C60.1671 629.885 63.3919 626.912 65.2837 623.109C67.1755 619.307 67.6019 614.941 66.4817 610.844C65.3615 606.748 62.773 603.206 59.2097 600.896L57.1809 607.726L55.7422 599.163C55.728 599.156 55.7133 599.151 55.6982 599.146C53.5631 598.372 51.2964 598.025 49.0274 598.127C46.7584 598.228 44.5316 598.776 42.4742 599.738C38.319 601.681 35.1059 605.195 33.5416 609.507C31.9774 613.819 32.1902 618.576 34.1332 622.731C36.0762 626.887 39.5902 630.1 43.9023 631.664V631.664Z"
    stroke="#796070" stroke-miterlimit="10" />
  <path
    d="M25.0728 663.483C25.7593 667.39 27.768 670.941 30.7621 673.542C33.7562 676.143 37.5535 677.635 41.5173 677.769C45.4811 677.902 49.3702 676.669 52.5325 674.275C55.6947 671.881 57.9378 668.473 58.8855 664.622C59.8332 660.771 59.4279 656.711 57.7376 653.123C56.0472 649.535 53.1747 646.638 49.6016 644.917C46.0286 643.195 41.9723 642.755 38.1132 643.67C34.254 644.584 30.8267 646.798 28.4059 649.939L36.112 661.538L25.5825 655.382C24.7661 658.002 24.5913 660.781 25.0728 663.483V663.483Z"
    fill="#B1ABB3" />
  <path
    d="M25.7852 661.191C26.4717 665.097 28.4804 668.649 31.4745 671.25C34.4686 673.851 38.2659 675.343 42.2297 675.477C46.1935 675.61 50.0826 674.377 53.2449 671.983C56.4071 669.589 58.6502 666.181 59.5979 662.33C60.5456 658.479 60.1403 654.419 58.45 650.831C56.7596 647.243 53.8871 644.346 50.314 642.625C46.741 640.903 42.6847 640.463 38.8256 641.377C34.9664 642.292 31.5391 644.506 29.1183 647.647L36.8244 659.246L26.2949 653.09C25.4785 655.71 25.3037 658.489 25.7852 661.191V661.191Z"
    stroke="#796070" stroke-miterlimit="10" />
  <path
    d="M608.349 431.481C620.225 431.481 629.852 419.022 629.852 403.653C629.852 388.284 620.225 375.825 608.349 375.825C596.473 375.825 586.846 388.284 586.846 403.653C586.846 419.022 596.473 431.481 608.349 431.481Z"
    fill="#82B9C9" />
  <path
    d="M725.352 432.113C737.228 432.113 746.856 419.654 746.856 404.285C746.856 388.916 737.228 376.457 725.352 376.457C713.476 376.457 703.849 388.916 703.849 404.285C703.849 419.654 713.476 432.113 725.352 432.113Z"
    fill="#82B9C9" />
  <path
    d="M708.909 486.504C708.909 499.077 691.352 509.273 669.697 509.273C648.042 509.273 630.485 499.077 630.485 486.504C630.485 475.613 643.653 466.506 661.248 464.28C664.049 463.91 666.872 463.729 669.697 463.736C674.432 463.721 679.153 464.23 683.776 465.254C698.474 468.53 708.909 476.815 708.909 486.504Z"
    fill="#82B9C9" />
  <path
    d="M613.409 425.156C625.285 425.156 634.912 412.697 634.912 397.328C634.912 381.959 625.285 369.5 613.409 369.5C601.533 369.5 591.905 381.959 591.905 397.328C591.905 412.697 601.533 425.156 613.409 425.156Z"
    stroke="#796070" stroke-miterlimit="10" />
  <path
    d="M730.412 425.789C742.288 425.789 751.916 413.329 751.916 397.96C751.916 382.591 742.288 370.132 730.412 370.132C718.537 370.132 708.909 382.591 708.909 397.96C708.909 413.329 718.537 425.789 730.412 425.789Z"
    stroke="#796070" stroke-miterlimit="10" />
  <path
    d="M674.757 502.948C696.413 502.948 713.969 492.754 713.969 480.18C713.969 467.605 696.413 457.411 674.757 457.411C653.101 457.411 635.545 467.605 635.545 480.18C635.545 492.754 653.101 502.948 674.757 502.948Z"
    stroke="#796070" stroke-miterlimit="10" />
  <path
    d="M684.243 467.151C684.253 468.742 683.656 470.276 682.574 471.442C682.062 472 681.441 472.446 680.749 472.753C680.056 473.059 679.308 473.219 678.551 473.223H665.902C664.344 473.168 662.87 472.499 661.803 471.362C660.737 470.224 660.164 468.71 660.21 467.151C660.204 465.918 660.565 464.711 661.247 463.684C664.046 463.29 666.87 463.096 669.697 463.103C674.437 463.088 679.162 463.631 683.775 464.723C684.087 465.494 684.246 466.319 684.243 467.151V467.151Z"
    fill="white" />
  <path
    d="M613.409 396.063C616.902 396.063 619.734 393.232 619.734 389.739C619.734 386.246 616.902 383.414 613.409 383.414C609.916 383.414 607.084 386.246 607.084 389.739C607.084 393.232 609.916 396.063 613.409 396.063Z"
    fill="white" />
  <path
    d="M731.045 396.063C734.538 396.063 737.369 393.232 737.369 389.739C737.369 386.246 734.538 383.414 731.045 383.414C727.552 383.414 724.72 386.246 724.72 389.739C724.72 393.232 727.552 396.063 731.045 396.063Z"
    fill="white" />
  <path opacity="0.3"
    d="M737.369 455.514C740.862 455.514 743.694 452.682 743.694 449.189C743.694 445.696 740.862 442.865 737.369 442.865C733.876 442.865 731.045 445.696 731.045 449.189C731.045 452.682 733.876 455.514 737.369 455.514Z"
    fill="#E2B96C" />
  <path opacity="0.3"
    d="M583.051 455.514C586.544 455.514 589.376 452.682 589.376 449.189C589.376 445.696 586.544 442.865 583.051 442.865C579.558 442.865 576.727 445.696 576.727 449.189C576.727 452.682 579.558 455.514 583.051 455.514Z"
    fill="#E2B96C" />
</svg>