<svg width="39" height="44" viewBox="0 0 39 44" fill="none" xmlns="http://www.w3.org/2000/svg">
  <path
    d="M24.8037 23.3918V23.3918C25.8429 24.4069 27.2379 24.9751 28.6906 24.9751H32.645C33.8828 24.9751 35.0772 24.5188 35.9997 23.6934V23.6934"
    stroke="white" stroke-width="0.8" />
  <path d="M15.1929 26.0496L12.9688 28.4056" stroke="white" stroke-width="0.8" />
  <path
    d="M6.65381 13.1764V13.1764C7.83847 12.028 9.42362 11.3858 11.0735 11.3858H11.6486M29.517 3.62025V3.62025C27.7846 2.00904 25.5065 1.1134 23.1407 1.1134H22.298"
    stroke="white" stroke-width="0.8" />
  <path
    d="M9.44385 28.4056V28.4056C11.6756 28.4056 13.8523 29.0987 15.6732 30.389L18.1141 32.1188M20.1309 32.1188L25.0881 28.4056M25.0881 28.4056H28.8012M25.0881 28.4056L23.0147 26.1438"
    stroke="white" stroke-width="0.8" />
  <path
    d="M6.71003 13.1386V13.1386C7.88198 11.9908 9.45704 11.348 11.0974 11.348H11.7991M31.59 13.1386L31.3918 12.9404C30.3722 11.9208 28.9893 11.348 27.5474 11.348V11.348C26.1161 11.348 24.7426 10.7836 23.7249 9.77733L22.6261 8.69096C22.2104 8.27998 21.6494 8.04948 21.0649 8.04948H19.9044C18.3466 8.04948 17.5708 6.16216 18.6782 5.06656V5.06656C19.0046 4.74364 19.4452 4.56252 19.9044 4.56252H21.8041C23.4509 4.56252 25.0337 5.20086 26.2197 6.3434L26.9588 7.05532C27.9347 7.99545 29.2371 8.52069 30.5922 8.52069V8.52069C31.9234 8.52069 33.2047 9.02765 34.1755 9.93849L36.0194 11.6684M29.5166 3.6201V3.6201C27.7823 2.04343 25.5226 1.1698 23.1787 1.1698H22.4485M5.01367 18.5104V18.5104C5.85823 18.5104 6.66795 18.1737 7.26359 17.575L9.72121 15.1046C9.86892 14.9561 10.0697 14.8726 10.2791 14.8726V14.8726C10.6406 14.8726 10.9556 15.1189 11.0429 15.4697L11.7991 18.5104M11.7991 18.5104L11.8228 18.7398C11.9931 20.3858 12.5481 21.9686 13.4429 23.3606L14.1787 24.5052C14.803 25.4763 15.6957 26.2454 16.7484 26.7191L16.898 26.7864C18.1872 27.3665 19.6491 27.433 20.9856 26.9721V26.9721C22.1188 26.5813 23.0951 25.8343 23.7685 24.8426L24.8045 23.3167V23.3167C25.5738 22.2249 26.0878 20.9742 26.3086 19.657L26.5009 18.5104M11.7991 18.5104L8.8776 21.2434M26.5009 18.5104L27.0839 15.4695C27.1503 15.1231 27.4533 14.8726 27.8061 14.8726V14.8726C27.9966 14.8726 28.1796 14.9465 28.3167 15.0788L31.0996 17.7643C31.5955 18.2429 32.2579 18.5104 32.9471 18.5104V18.5104M26.5009 18.5104L29.2339 21.2434"
    stroke="white" stroke-width="0.8" />
  <path
    d="M2.31787 23.637V23.637C3.07372 24.4768 4.1505 24.9564 5.28038 24.9564H9.20744C10.7547 24.9564 12.2477 24.386 13.4008 23.3542V23.3542"
    stroke="white" stroke-width="0.8" />
  <path
    d="M8.8491 3.83225L10.8078 1.65492C11.1828 1.23805 11.7172 1 12.2779 1V1C13.9989 1 14.8984 3.04615 13.7349 4.31423L11.1136 7.17117C10.4162 7.93119 9.43205 8.36386 8.40058 8.36386H7.81215C6.50446 8.36386 5.24838 8.87409 4.31113 9.78601L2.33789 11.7059"
    stroke="white" stroke-width="0.8" />
  <circle cx="7.84156" cy="4.58143" r="0.994785" stroke="white" stroke-width="0.8" />
  <circle cx="1.39478" cy="12.6862" r="0.994785" stroke="white" stroke-width="0.8" />
  <circle cx="5.80592" cy="14.0807" r="0.994785" stroke="white" stroke-width="0.8" />
  <circle cx="3.73268" cy="18.4916" r="0.994785" stroke="white" stroke-width="0.8" />
  <circle cx="1.39478" cy="22.6379" r="0.994785" stroke="white" stroke-width="0.8" />
  <circle cx="8.02857" cy="22.2233" r="0.994785" stroke="white" stroke-width="0.8" />
  <circle cx="8.02857" cy="28.2927" r="0.994785" stroke="white" stroke-width="0.8" />
  <circle cx="19.075" cy="32.967" r="0.994785" stroke="white" stroke-width="0.8" />
  <circle cx="30.158" cy="28.2927" r="0.994785" stroke="white" stroke-width="0.8" />
  <circle cx="36.7546" cy="22.6379" r="0.994785" stroke="white" stroke-width="0.8" />
  <circle cx="30.158" cy="22.2233" r="0.994785" stroke="white" stroke-width="0.8" />
  <circle cx="34.342" cy="18.4916" r="0.994785" stroke="white" stroke-width="0.8" />
  <circle cx="32.4578" cy="14.0807" r="0.994785" stroke="white" stroke-width="0.8" />
  <circle cx="36.867" cy="12.6862" r="0.994785" stroke="white" stroke-width="0.8" />
  <circle cx="30.384" cy="4.54347" r="0.994785" stroke="white" stroke-width="0.8" />
  <path
    d="M11.874 13.5153H14.7779C15.6693 13.5153 16.5232 13.8737 17.1476 14.5098V14.5098C17.7988 15.1733 18.142 16.0793 18.0939 17.0076L18.0223 18.3872C17.9624 19.5428 18.9887 20.4564 20.1296 20.263V20.263M20.3558 15.1739V15.1739C21.2908 14.1191 22.6329 13.5153 24.0424 13.5153H26.1234M12.1756 15.1739L13.9097 15.5509M16.8877 16.7572L16.228 16.0033M16.8877 22.9018L17.6844 22.5868C18.08 22.4304 18.5614 22.8626 18.9851 22.8996V22.8996C19.0108 22.9018 19.035 22.9027 19.0602 22.8977V22.8977C19.4505 22.8207 19.9512 22.425 20.3222 22.5684L21.1852 22.9018M18.1694 24.5981C18.3956 24.8746 19.1043 25.2616 20.1296 24.5981M21.1852 16.7572L22.0333 16.0033M25.8973 15.1739L24.2763 15.5509M13.9097 15.5509H15.2311C15.6131 15.5509 15.9765 15.7158 16.228 16.0033V16.0033M13.9097 15.5509C13.8989 15.7989 13.9265 16.1477 14.0353 16.4556M16.228 16.0033C15.9899 16.7516 15.5734 17.0353 15.2639 17.1139C15.0945 17.157 14.9133 17.1593 14.7403 17.1342V17.1342M22.0333 16.0033V16.0033C22.3357 15.713 22.7386 15.5509 23.1577 15.5509H24.2763M22.0333 16.0033C22.1124 16.3827 22.3745 17.0487 22.8485 17.1466C23.0409 17.1864 23.2511 17.1791 23.4423 17.1342V17.1342M24.2763 15.5509C24.253 15.9323 24.1889 16.2281 24.101 16.4556M23.4423 17.1342L24.101 18.3782M23.4423 17.1342C23.6708 17.0804 23.9307 16.8958 24.101 16.4556M24.101 16.4556L25.3695 17.1342M14.7403 17.1342L14.2489 18.3782M14.7403 17.1342C14.3707 17.0805 14.1544 16.7925 14.0353 16.4556M14.0353 16.4556L12.8918 17.1342"
    stroke="white" stroke-width="0.8" />
  <circle cx="19.113" cy="11.4423" r="0.994785" stroke="white" stroke-width="0.8" />
  <circle cx="7.84156" cy="4.58143" r="0.994785" stroke="white" stroke-width="0.8" />
  <circle cx="7.84156" cy="4.58143" r="0.994785" stroke="white" stroke-width="0.8" />
  <path
    d="M9.01025 36.548H10.16M13.0815 40.4308L11.3098 36.548H10.16M13.0815 40.4308L14.1747 38.2443L15.9465 42.014L18.3214 36.548M13.0815 40.4308L12.3653 42.014L10.16 36.548"
    stroke="white" stroke-width="0.8" />
  <path d="M12.7422 36.4729H14.7778M15.6072 36.4729H14.7778M14.7778 36.4729L16.625 40.4688" stroke="white"
    stroke-width="0.8" />
  <path
    d="M13.458 36.5106L14.1742 38.3578M17.4916 36.5106C17.19 36.5106 19.2256 36.5106 19.2256 36.5106M19.7911 36.5106H20.7335M22.7691 36.5106H21.9398M20.7335 36.5106V42.0144M20.7335 36.5106H21.9398M19.7911 42.0144H21.9398M22.7691 42.0144H21.9398M21.9398 42.0144V36.5106M23.5985 37.3023V36.5106H25.5587M28.8383 37.3023V36.5106H26.8027M26.8027 36.5106V42.0144M26.8027 36.5106H25.5587M25.5587 36.5106V42.0144H24.6917H27.632"
    stroke="white" stroke-width="0.8" />
</svg>