<svg width="179" height="195" viewBox="0 0 179 195" fill="none" xmlns="http://www.w3.org/2000/svg">
  <path
    d="M115.507 105.273L118.684 108.376C121.487 111.113 125.248 112.645 129.165 112.645H155.242C158.932 112.645 162.493 111.285 165.244 108.824L167.643 106.677"
    stroke="#82B9C9" stroke-width="2" />
  <path d="M70.7435 117.648L60.3865 128.619" stroke="#82B9C9" stroke-width="2" />
  <path
    d="M30.9834 57.7007L35.2216 53.5922C38.02 50.8794 41.7645 49.3624 45.662 49.3624H54.2428M137.45 13.2007L129.217 5.54341C126.441 2.96204 122.792 1.5271 119.001 1.5271H103.833"
    stroke="#82B9C9" stroke-width="2" />
  <path
    d="M43.9731 128.619H55.1715C58.2787 128.619 61.3091 129.584 63.8442 131.381L84.3479 145.91M93.7394 145.91L116.823 128.619M116.823 128.619H134.114M116.823 128.619L107.168 118.087"
    stroke="#82B9C9" stroke-width="2" />
  <path
    d="M31.2466 57.5247L35.3867 53.47C38.1902 50.7242 41.9581 49.1865 45.8823 49.1865H54.9448M147.105 57.5247L143.16 53.5799C140.347 50.7668 136.531 49.1865 132.553 49.1865H124.04C120.091 49.1865 116.302 47.6294 113.494 44.8532L105.363 36.8137C103.427 34.8999 100.815 33.8265 98.0925 33.8265H92.6885C85.4343 33.8265 81.8216 25.0378 86.9785 19.936V19.936C88.4985 18.4323 90.5504 17.5889 92.6885 17.5889H107.439C111.32 17.5889 115.05 19.0932 117.845 21.7859L128.265 31.8238C131.061 34.5164 134.791 36.0208 138.672 36.0208H146.173C149.985 36.0208 153.655 37.4728 156.436 40.0816L167.731 50.6786M137.45 13.2003L129.189 5.69094C126.428 3.18087 122.831 1.79004 119.099 1.79004H104.536M23.3472 82.5395V82.5395C27.28 82.5395 31.0506 80.9719 33.8243 78.1838L45.2687 66.6798C45.9565 65.9884 46.8915 65.5997 47.8668 65.5997V65.5997C49.5501 65.5997 51.017 66.7464 51.4232 68.38L54.9448 82.5395M54.9448 82.5395L55.8932 91.7078C56.1353 94.0474 56.9241 96.2972 58.1959 98.2757L68.0747 113.643C69.6447 116.085 71.8895 118.019 74.537 119.21L82.6113 122.844C86.0949 124.411 90.0453 124.591 93.6567 123.345L101.135 120.767C104.197 119.711 106.835 117.692 108.655 115.012L115.507 104.921L118.982 99.9887C120.277 98.1513 121.142 96.0464 121.513 93.8297L123.406 82.5395M54.9448 82.5395L41.3403 95.2664M123.406 82.5395L126.121 68.3793C126.43 66.7661 127.841 65.5997 129.484 65.5997V65.5997C130.371 65.5997 131.224 65.9439 131.862 66.5599L144.821 79.0655C147.13 81.2941 150.215 82.5395 153.424 82.5395V82.5395M123.406 82.5395L136.133 95.2664"
    stroke="#82B9C9" stroke-width="2" />
  <path
    d="M10.7959 106.413L11.8565 107.592C14.7011 110.752 18.7536 112.557 23.0059 112.557H48.3361C52.0267 112.557 55.5877 111.197 58.3381 108.736L62.4054 105.097"
    stroke="#82B9C9" stroke-width="2" />
  <path
    d="M41.2044 14.1889L50.3255 4.04973C52.0718 2.10854 54.5601 1 57.1712 1V1C65.1852 1 69.374 10.5283 63.956 16.4333L51.1116 30.4322C48.2706 33.5285 44.2612 35.2911 40.059 35.2911H32.9722C29.0651 35.2911 25.3122 36.8156 22.5119 39.5402L10.8838 50.854"
    stroke="#82B9C9" stroke-width="2" />
  <circle cx="36.5126" cy="17.6768" r="5.49507" stroke="#82B9C9" stroke-width="2" />
  <circle cx="6.49507" cy="55.4177" r="5.49507" stroke="#82B9C9" stroke-width="2" />
  <circle cx="27.0336" cy="61.913" r="5.49507" stroke="#82B9C9" stroke-width="2" />
  <circle cx="17.3789" cy="82.4516" r="5.49507" stroke="#82B9C9" stroke-width="2" />
  <circle cx="6.49507" cy="101.761" r="5.49507" stroke="#82B9C9" stroke-width="2" />
  <circle cx="37.3903" cy="99.8309" r="5.49507" stroke="#82B9C9" stroke-width="2" />
  <circle cx="37.3903" cy="128.093" r="5.49507" stroke="#82B9C9" stroke-width="2" />
  <circle cx="88.8244" cy="149.861" r="5.49507" stroke="#82B9C9" stroke-width="2" />
  <circle cx="140.434" cy="128.093" r="5.49507" stroke="#82B9C9" stroke-width="2" />
  <circle cx="171.154" cy="101.761" r="5.49507" stroke="#82B9C9" stroke-width="2" />
  <circle cx="140.434" cy="99.8309" r="5.49507" stroke="#82B9C9" stroke-width="2" />
  <circle cx="159.919" cy="82.4516" r="5.49507" stroke="#82B9C9" stroke-width="2" />
  <circle cx="151.142" cy="61.913" r="5.49507" stroke="#82B9C9" stroke-width="2" />
  <circle cx="171.68" cy="55.4177" r="5.49507" stroke="#82B9C9" stroke-width="2" />
  <circle cx="141.487" cy="17.5008" r="5.49507" stroke="#82B9C9" stroke-width="2" />
  <path
    d="M55.2957 59.2803H68.818C72.9689 59.2803 76.9456 60.9493 79.8532 63.9117V63.9117C82.8854 67.0011 84.4836 71.2201 84.2595 75.5432L83.9264 81.9672C83.6473 87.3487 88.4265 91.6029 93.7394 90.7024V90.7024M94.7927 67.0041V67.0041C99.1466 62.092 105.396 59.2803 111.96 59.2803H121.651M56.7 67.0041L64.7749 68.7596M78.6428 74.3769L75.5708 70.8661M78.6428 102.99L82.3529 101.524C84.1948 100.795 86.4367 102.808 88.4098 102.98V102.98C88.5292 102.991 88.6419 102.995 88.7595 102.971V102.971C90.5767 102.613 92.9085 100.77 94.6363 101.438L98.6546 102.99M84.6112 110.89C85.6645 112.177 88.9647 113.979 93.7394 110.89M98.6546 74.3769L102.604 70.8661M120.597 67.0041L113.049 68.7596M64.7749 68.7596H70.9285C72.7073 68.7596 74.3995 69.5274 75.5708 70.8661V70.8661M64.7749 68.7596C64.7247 69.9143 64.8533 71.5385 65.3602 72.9726M75.5708 70.8661C74.4619 74.3511 72.5225 75.672 71.0813 76.0382C70.2922 76.2387 69.4486 76.2494 68.6429 76.1323V76.1323M102.604 70.8661V70.8661C104.012 69.5144 105.889 68.7596 107.84 68.7596H113.049M102.604 70.8661C102.972 72.6331 104.193 75.7342 106.4 76.1904C107.296 76.3756 108.275 76.3418 109.166 76.1323V76.1323M113.049 68.7596C112.94 70.5354 112.642 71.913 112.233 72.9726M109.166 76.1323L112.233 81.9252M109.166 76.1323C110.23 75.8821 111.44 75.0226 112.233 72.9726M112.233 72.9726L118.14 76.1323M68.6429 76.1323L66.3548 81.9252M68.6429 76.1323C66.9218 75.8823 65.9147 74.5412 65.3602 72.9726M65.3602 72.9726L60.0353 76.1323"
    stroke="#82B9C9" stroke-width="2" />
  <circle cx="89" cy="49.6252" r="5.49507" stroke="#82B9C9" stroke-width="2" />
  <circle cx="36.5126" cy="17.6768" r="5.49507" stroke="#82B9C9" stroke-width="2" />
  <circle cx="36.5126" cy="17.6768" r="5.49507" stroke="#82B9C9" stroke-width="2" />
  <path
    d="M41.9548 166.536H47.3089M60.9134 184.617L52.6629 166.536H47.3089M60.9134 184.617L66.0041 174.436L74.2546 191.99L85.3138 166.536M60.9134 184.617L57.5781 191.99L47.3089 166.536"
    stroke="#82B9C9" stroke-width="2" />
  <path d="M59.3335 166.185H68.8128M72.6747 166.185H68.8128M68.8128 166.185L77.4144 184.793" stroke="#82B9C9"
    stroke-width="2" />
  <path
    d="M62.6687 166.361L66.004 174.963M81.4517 166.361C80.0474 166.361 89.5267 166.361 89.5267 166.361M92.1598 166.361H96.5484M106.028 166.361H102.166M96.5484 166.361V191.99M96.5484 166.361H102.166M92.1598 191.99H102.166M106.028 191.99H102.166M102.166 191.99V166.361M109.89 170.048V166.361H119.018M134.29 170.048V166.361H124.811M124.811 166.361V191.99M124.811 166.361H119.018M119.018 166.361V191.99H114.98H128.673"
    stroke="#82B9C9" stroke-width="2" />
</svg>